<svg width="104" height="14" viewBox="0 0 104 14" fill="none" xmlns="http://www.w3.org/2000/svg">
<path d="M5.58594 11.4062V7.04688C5.58594 6.64583 5.5026 6.29948 5.33594 6.00781C5.16927 5.71615 4.92448 5.49219 4.60156 5.33594C4.27865 5.17969 3.88021 5.10156 3.40625 5.10156C2.96875 5.10156 2.57812 5.17969 2.23438 5.33594C1.89583 5.48698 1.6276 5.69271 1.42969 5.95312C1.23698 6.20833 1.14062 6.49219 1.14062 6.80469L0.203125 6.79688C0.203125 6.47917 0.28125 6.17188 0.4375 5.875C0.59375 5.57812 0.815104 5.3125 1.10156 5.07812C1.38802 4.84375 1.72917 4.65885 2.125 4.52344C2.52604 4.38281 2.96615 4.3125 3.44531 4.3125C4.04948 4.3125 4.58073 4.41406 5.03906 4.61719C5.5026 4.82031 5.86458 5.125 6.125 5.53125C6.38542 5.9375 6.51562 6.44792 6.51562 7.0625V11.1484C6.51562 11.4401 6.53646 11.7422 6.57812 12.0547C6.625 12.3672 6.6901 12.625 6.77344 12.8281V12.9219H5.78125C5.71875 12.7344 5.66927 12.5 5.63281 12.2188C5.60156 11.9323 5.58594 11.6615 5.58594 11.4062ZM5.80469 8L5.82031 8.71875H3.98438C3.50521 8.71875 3.07552 8.76302 2.69531 8.85156C2.32031 8.9349 2.0026 9.0599 1.74219 9.22656C1.48177 9.38802 1.28125 9.58333 1.14062 9.8125C1.00521 10.0417 0.9375 10.3021 0.9375 10.5938C0.9375 10.8958 1.01302 11.1719 1.16406 11.4219C1.32031 11.6719 1.53906 11.8724 1.82031 12.0234C2.10677 12.1693 2.44531 12.2422 2.83594 12.2422C3.35677 12.2422 3.8151 12.1458 4.21094 11.9531C4.61198 11.7604 4.94271 11.5078 5.20312 11.1953C5.46354 10.8828 5.63802 10.5417 5.72656 10.1719L6.13281 10.7109C6.0651 10.9714 5.9401 11.2396 5.75781 11.5156C5.58073 11.7865 5.34896 12.0417 5.0625 12.2812C4.77604 12.5156 4.4375 12.7083 4.04688 12.8594C3.66146 13.0052 3.22396 13.0781 2.73438 13.0781C2.18229 13.0781 1.70052 12.974 1.28906 12.7656C0.882812 12.5573 0.565104 12.2734 0.335938 11.9141C0.111979 11.5495 0 11.138 0 10.6797C0 10.263 0.0885417 9.89062 0.265625 9.5625C0.442708 9.22917 0.697917 8.94792 1.03125 8.71875C1.36979 8.48438 1.77604 8.30729 2.25 8.1875C2.72917 8.0625 3.26562 8 3.85938 8H5.80469Z" fill="#CAAFFF"/>
<path d="M9.95312 6.27344V12.9219H9.02344V4.46875H9.91406L9.95312 6.27344ZM9.74219 8.17188L9.32812 7.9375C9.35938 7.4375 9.46094 6.96875 9.63281 6.53125C9.80469 6.09375 10.0365 5.70833 10.3281 5.375C10.625 5.04167 10.9714 4.78125 11.3672 4.59375C11.7682 4.40625 12.2109 4.3125 12.6953 4.3125C13.1172 4.3125 13.4948 4.36979 13.8281 4.48438C14.1615 4.59896 14.4453 4.78125 14.6797 5.03125C14.9141 5.28125 15.0911 5.60156 15.2109 5.99219C15.3359 6.38281 15.3984 6.85938 15.3984 7.42188V12.9219H14.4609V7.41406C14.4609 6.83073 14.3802 6.375 14.2188 6.04688C14.0573 5.71354 13.8281 5.47656 13.5312 5.33594C13.2344 5.19531 12.8828 5.125 12.4766 5.125C12.0286 5.125 11.6354 5.22396 11.2969 5.42188C10.9635 5.61458 10.6823 5.86719 10.4531 6.17969C10.2292 6.48698 10.0573 6.81771 9.9375 7.17188C9.81771 7.52083 9.7526 7.85417 9.74219 8.17188Z" fill="#CAAFFF"/>
<path d="M23.3125 11.2812V0.921875H24.25V12.9219H23.375L23.3125 11.2812ZM17.4453 8.78125V8.61719C17.4453 7.96094 17.5208 7.36979 17.6719 6.84375C17.8229 6.3125 18.0391 5.85938 18.3203 5.48438C18.6068 5.10417 18.9505 4.8151 19.3516 4.61719C19.7526 4.41406 20.2057 4.3125 20.7109 4.3125C21.2057 4.3125 21.6432 4.39323 22.0234 4.55469C22.4036 4.71615 22.7292 4.94792 23 5.25C23.276 5.55208 23.4974 5.91146 23.6641 6.32812C23.8359 6.74479 23.9609 7.20833 24.0391 7.71875V9.80469C23.9766 10.2839 23.862 10.724 23.6953 11.125C23.5286 11.5208 23.3073 11.8672 23.0312 12.1641C22.7552 12.4557 22.4219 12.6823 22.0312 12.8438C21.6458 13 21.2005 13.0781 20.6953 13.0781C20.1953 13.0781 19.7448 12.974 19.3438 12.7656C18.9427 12.5573 18.6016 12.263 18.3203 11.8828C18.0391 11.4974 17.8229 11.0417 17.6719 10.5156C17.5208 9.98958 17.4453 9.41146 17.4453 8.78125ZM18.3828 8.61719V8.78125C18.3828 9.27604 18.4323 9.73438 18.5312 10.1562C18.6302 10.5781 18.7812 10.9453 18.9844 11.2578C19.1875 11.5703 19.4453 11.8151 19.7578 11.9922C20.0703 12.1693 20.4401 12.2578 20.8672 12.2578C21.4036 12.2578 21.8542 12.1562 22.2188 11.9531C22.5833 11.7448 22.875 11.4714 23.0938 11.1328C23.3125 10.7891 23.4714 10.4141 23.5703 10.0078V7.57812C23.5078 7.30208 23.4167 7.02083 23.2969 6.73438C23.1771 6.44792 23.013 6.1849 22.8047 5.94531C22.6016 5.70052 22.3411 5.50521 22.0234 5.35938C21.7109 5.20833 21.3307 5.13281 20.8828 5.13281C20.4505 5.13281 20.0781 5.22135 19.7656 5.39844C19.4531 5.57552 19.1927 5.82292 18.9844 6.14062C18.7812 6.45312 18.6302 6.82031 18.5312 7.24219C18.4323 7.66406 18.3828 8.1224 18.3828 8.61719Z" fill="#CAAFFF"/>
<path d="M29.9766 13.0781C29.4245 13.0781 28.9167 12.9766 28.4531 12.7734C27.9948 12.5703 27.5938 12.2839 27.25 11.9141C26.9115 11.5443 26.6484 11.1068 26.4609 10.6016C26.2786 10.0911 26.1875 9.53385 26.1875 8.92969V8.59375C26.1875 7.94271 26.2839 7.35417 26.4766 6.82812C26.6693 6.30208 26.9349 5.85156 27.2734 5.47656C27.612 5.10156 27.9974 4.8151 28.4297 4.61719C28.8672 4.41406 29.3255 4.3125 29.8047 4.3125C30.3411 4.3125 30.8177 4.40885 31.2344 4.60156C31.651 4.78906 32 5.05729 32.2812 5.40625C32.5677 5.75 32.7839 6.15885 32.9297 6.63281C33.0755 7.10156 33.1484 7.61979 33.1484 8.1875V8.75781H26.75V7.96094H32.2188V7.85156C32.2083 7.3776 32.112 6.9349 31.9297 6.52344C31.7526 6.10677 31.487 5.76823 31.1328 5.50781C30.7786 5.2474 30.3359 5.11719 29.8047 5.11719C29.4089 5.11719 29.0443 5.20052 28.7109 5.36719C28.3828 5.53385 28.099 5.77344 27.8594 6.08594C27.625 6.39323 27.4427 6.76042 27.3125 7.1875C27.1875 7.60938 27.125 8.07812 27.125 8.59375V8.92969C27.125 9.39844 27.1927 9.83594 27.3281 10.2422C27.4688 10.6432 27.6667 10.9974 27.9219 11.3047C28.1823 11.612 28.4896 11.8516 28.8438 12.0234C29.1979 12.1953 29.5885 12.2812 30.0156 12.2812C30.5156 12.2812 30.9583 12.1901 31.3438 12.0078C31.7292 11.8203 32.0755 11.526 32.3828 11.125L32.9688 11.5781C32.7865 11.849 32.5573 12.099 32.2812 12.3281C32.0104 12.5573 31.6849 12.7396 31.3047 12.875C30.9245 13.0104 30.4818 13.0781 29.9766 13.0781Z" fill="#CAAFFF"/>
<path d="M35.9219 5.86719V12.9219H34.9922V4.46875H35.8984L35.9219 5.86719ZM38.9141 4.40625L38.8906 5.26562C38.7865 5.25 38.6849 5.23698 38.5859 5.22656C38.487 5.21615 38.3802 5.21094 38.2656 5.21094C37.8594 5.21094 37.5026 5.28646 37.1953 5.4375C36.8932 5.58333 36.638 5.78906 36.4297 6.05469C36.2214 6.3151 36.0625 6.6224 35.9531 6.97656C35.8438 7.32552 35.7812 7.70052 35.7656 8.10156L35.4219 8.23438C35.4219 7.68229 35.4792 7.16927 35.5938 6.69531C35.7083 6.22135 35.8828 5.80729 36.1172 5.45312C36.3568 5.09375 36.6562 4.8151 37.0156 4.61719C37.3802 4.41406 37.8073 4.3125 38.2969 4.3125C38.4167 4.3125 38.5339 4.32292 38.6484 4.34375C38.7682 4.35938 38.8568 4.38021 38.9141 4.40625Z" fill="#CAAFFF"/>
<path d="M45.4453 10.7656C45.4453 10.5365 45.388 10.3099 45.2734 10.0859C45.1589 9.86198 44.9375 9.65625 44.6094 9.46875C44.2865 9.28125 43.8099 9.1224 43.1797 8.99219C42.7109 8.88802 42.2917 8.77083 41.9219 8.64062C41.5573 8.51042 41.25 8.35417 41 8.17188C40.75 7.98958 40.5599 7.77083 40.4297 7.51562C40.2995 7.26042 40.2344 6.95833 40.2344 6.60938C40.2344 6.29688 40.3021 6.0026 40.4375 5.72656C40.5781 5.44531 40.776 5.20052 41.0312 4.99219C41.2917 4.77865 41.6042 4.61198 41.9688 4.49219C42.3385 4.3724 42.7526 4.3125 43.2109 4.3125C43.862 4.3125 44.4193 4.42448 44.8828 4.64844C45.3516 4.86719 45.7083 5.16667 45.9531 5.54688C46.2031 5.92708 46.3281 6.35677 46.3281 6.83594H45.3984C45.3984 6.54427 45.3125 6.26823 45.1406 6.00781C44.974 5.7474 44.7266 5.53385 44.3984 5.36719C44.0755 5.20052 43.6797 5.11719 43.2109 5.11719C42.7266 5.11719 42.3333 5.1901 42.0312 5.33594C41.7292 5.48177 41.5078 5.66667 41.3672 5.89062C41.2318 6.11458 41.1641 6.34635 41.1641 6.58594C41.1641 6.77344 41.1927 6.94531 41.25 7.10156C41.3125 7.2526 41.4219 7.39323 41.5781 7.52344C41.7396 7.65365 41.9688 7.77604 42.2656 7.89062C42.5625 8.00521 42.9479 8.11719 43.4219 8.22656C44.1042 8.3776 44.6615 8.5625 45.0938 8.78125C45.5312 8.99479 45.8542 9.26042 46.0625 9.57812C46.2708 9.89062 46.375 10.2708 46.375 10.7188C46.375 11.0677 46.3021 11.388 46.1562 11.6797C46.0104 11.9661 45.7995 12.2135 45.5234 12.4219C45.2526 12.6302 44.9245 12.7917 44.5391 12.9062C44.1589 13.0208 43.7318 13.0781 43.2578 13.0781C42.5443 13.0781 41.9401 12.9609 41.4453 12.7266C40.9557 12.487 40.5833 12.1745 40.3281 11.7891C40.0781 11.3984 39.9531 10.9844 39.9531 10.5469H40.8828C40.9141 10.9844 41.0521 11.3307 41.2969 11.5859C41.5417 11.8359 41.8411 12.013 42.1953 12.1172C42.5547 12.2214 42.9089 12.2734 43.2578 12.2734C43.737 12.2734 44.138 12.2031 44.4609 12.0625C44.7839 11.9219 45.0286 11.737 45.1953 11.5078C45.362 11.2786 45.4453 11.0312 45.4453 10.7656Z" fill="#CAAFFF"/>
<path d="M47.9766 8.82812V8.57031C47.9766 7.95573 48.0651 7.38802 48.2422 6.86719C48.4193 6.34635 48.6719 5.89583 49 5.51562C49.3333 5.13542 49.7318 4.84115 50.1953 4.63281C50.6589 4.41927 51.1745 4.3125 51.7422 4.3125C52.3151 4.3125 52.8333 4.41927 53.2969 4.63281C53.7604 4.84115 54.1589 5.13542 54.4922 5.51562C54.8255 5.89583 55.0807 6.34635 55.2578 6.86719C55.4349 7.38802 55.5234 7.95573 55.5234 8.57031V8.82812C55.5234 9.44271 55.4349 10.0104 55.2578 10.5312C55.0807 11.0469 54.8255 11.4948 54.4922 11.875C54.1641 12.2552 53.7682 12.5521 53.3047 12.7656C52.8411 12.974 52.3255 13.0781 51.7578 13.0781C51.1849 13.0781 50.6667 12.974 50.2031 12.7656C49.7396 12.5521 49.3411 12.2552 49.0078 11.875C48.6745 11.4948 48.4193 11.0469 48.2422 10.5312C48.0651 10.0104 47.9766 9.44271 47.9766 8.82812ZM48.9062 8.57031V8.82812C48.9062 9.29167 48.9688 9.73177 49.0938 10.1484C49.2188 10.5599 49.401 10.9271 49.6406 11.25C49.8802 11.5677 50.1771 11.8177 50.5312 12C50.8854 12.1823 51.2943 12.2734 51.7578 12.2734C52.2161 12.2734 52.6198 12.1823 52.9688 12C53.3229 11.8177 53.6198 11.5677 53.8594 11.25C54.099 10.9271 54.2786 10.5599 54.3984 10.1484C54.5234 9.73177 54.5859 9.29167 54.5859 8.82812V8.57031C54.5859 8.11198 54.5234 7.67708 54.3984 7.26562C54.2786 6.85417 54.0964 6.48698 53.8516 6.16406C53.612 5.84115 53.3151 5.58594 52.9609 5.39844C52.6068 5.21094 52.2005 5.11719 51.7422 5.11719C51.2839 5.11719 50.8776 5.21094 50.5234 5.39844C50.1745 5.58594 49.8776 5.84115 49.6328 6.16406C49.3932 6.48698 49.2109 6.85417 49.0859 7.26562C48.9661 7.67708 48.9062 8.11198 48.9062 8.57031Z" fill="#CAAFFF"/>
<path d="M58.3906 6.27344V12.9219H57.4609V4.46875H58.3516L58.3906 6.27344ZM58.1797 8.17188L57.7656 7.9375C57.7969 7.4375 57.8984 6.96875 58.0703 6.53125C58.2422 6.09375 58.474 5.70833 58.7656 5.375C59.0625 5.04167 59.4089 4.78125 59.8047 4.59375C60.2057 4.40625 60.6484 4.3125 61.1328 4.3125C61.5547 4.3125 61.9323 4.36979 62.2656 4.48438C62.599 4.59896 62.8828 4.78125 63.1172 5.03125C63.3516 5.28125 63.5286 5.60156 63.6484 5.99219C63.7734 6.38281 63.8359 6.85938 63.8359 7.42188V12.9219H62.8984V7.41406C62.8984 6.83073 62.8177 6.375 62.6562 6.04688C62.4948 5.71354 62.2656 5.47656 61.9688 5.33594C61.6719 5.19531 61.3203 5.125 60.9141 5.125C60.4661 5.125 60.0729 5.22396 59.7344 5.42188C59.401 5.61458 59.1198 5.86719 58.8906 6.17969C58.6667 6.48698 58.4948 6.81771 58.375 7.17188C58.2552 7.52083 58.1901 7.85417 58.1797 8.17188Z" fill="#CAAFFF"/>
<path d="M68.7656 11.3594L70.7344 4.46875H72.8906L69.9922 12.9219H68.6797L68.7656 11.3594ZM67.3281 4.46875L69.3203 11.375L69.3906 12.9219H68.0703L65.1641 4.46875H67.3281Z" fill="#CAAFFF"/>
<path d="M76.1641 4.46875V12.9219H74.0938V4.46875H76.1641ZM73.9531 2.25781C73.9531 1.95052 74.0573 1.69531 74.2656 1.49219C74.4792 1.28906 74.7656 1.1875 75.125 1.1875C75.4844 1.1875 75.7682 1.28906 75.9766 1.49219C76.1901 1.69531 76.2969 1.95052 76.2969 2.25781C76.2969 2.5599 76.1901 2.8125 75.9766 3.01562C75.7682 3.21875 75.4844 3.32031 75.125 3.32031C74.7656 3.32031 74.4792 3.21875 74.2656 3.01562C74.0573 2.8125 73.9531 2.5599 73.9531 2.25781Z" fill="#CAAFFF"/>
<path d="M81.9297 13.0781C81.2891 13.0781 80.7135 12.974 80.2031 12.7656C79.6927 12.5573 79.2578 12.2682 78.8984 11.8984C78.5443 11.5234 78.2708 11.0885 78.0781 10.5938C77.8906 10.0938 77.7969 9.55729 77.7969 8.98438V8.67188C77.7969 8.02083 77.8906 7.42969 78.0781 6.89844C78.2656 6.36198 78.5312 5.90104 78.875 5.51562C79.2188 5.13021 79.6302 4.83333 80.1094 4.625C80.5885 4.41667 81.1172 4.3125 81.6953 4.3125C82.2943 4.3125 82.8229 4.41406 83.2812 4.61719C83.7396 4.8151 84.1224 5.09635 84.4297 5.46094C84.737 5.82552 84.9688 6.26302 85.125 6.77344C85.2812 7.27865 85.3594 7.83854 85.3594 8.45312V9.32031H78.7344V7.89844H83.3281V7.74219C83.3177 7.41406 83.2552 7.11458 83.1406 6.84375C83.026 6.56771 82.849 6.34896 82.6094 6.1875C82.3698 6.02083 82.0599 5.9375 81.6797 5.9375C81.3724 5.9375 81.1042 6.00521 80.875 6.14062C80.651 6.27083 80.4635 6.45833 80.3125 6.70312C80.1667 6.94271 80.0573 7.22917 79.9844 7.5625C79.9115 7.89583 79.875 8.26562 79.875 8.67188V8.98438C79.875 9.33854 79.9219 9.66667 80.0156 9.96875C80.1146 10.2708 80.2578 10.5339 80.4453 10.7578C80.638 10.9766 80.8672 11.1484 81.1328 11.2734C81.4036 11.3932 81.7109 11.4531 82.0547 11.4531C82.487 11.4531 82.8776 11.3698 83.2266 11.2031C83.5807 11.0312 83.888 10.7786 84.1484 10.4453L85.1875 11.5234C85.0104 11.7839 84.7708 12.0339 84.4688 12.2734C84.1719 12.513 83.8125 12.7083 83.3906 12.8594C82.9688 13.0052 82.4818 13.0781 81.9297 13.0781Z" fill="#CAAFFF"/>
<path d="M88.9297 4.46875V12.9219H86.8594V4.46875H88.9297ZM86.7188 2.25781C86.7188 1.95052 86.8229 1.69531 87.0312 1.49219C87.2448 1.28906 87.5312 1.1875 87.8906 1.1875C88.25 1.1875 88.5339 1.28906 88.7422 1.49219C88.9557 1.69531 89.0625 1.95052 89.0625 2.25781C89.0625 2.5599 88.9557 2.8125 88.7422 3.01562C88.5339 3.21875 88.25 3.32031 87.8906 3.32031C87.5312 3.32031 87.2448 3.21875 87.0312 3.01562C86.8229 2.8125 86.7188 2.5599 86.7188 2.25781Z" fill="#CAAFFF"/>
<path d="M92.9609 6.19531V12.9219H90.8984V4.46875H92.8516L92.9609 6.19531ZM95.5312 4.41406L95.5 6.33594C95.3854 6.3151 95.2552 6.29948 95.1094 6.28906C94.9688 6.27865 94.8359 6.27344 94.7109 6.27344C94.3932 6.27344 94.1146 6.31771 93.875 6.40625C93.6354 6.48958 93.4349 6.61198 93.2734 6.77344C93.1172 6.9349 92.9974 7.13281 92.9141 7.36719C92.8307 7.59635 92.7839 7.85677 92.7734 8.14844L92.3281 8.09375C92.3281 7.55729 92.3828 7.0599 92.4922 6.60156C92.6016 6.14323 92.7604 5.74219 92.9688 5.39844C93.1771 5.05469 93.4375 4.78906 93.75 4.60156C94.0677 4.40885 94.4323 4.3125 94.8438 4.3125C94.9583 4.3125 95.0807 4.32292 95.2109 4.34375C95.3464 4.35938 95.4531 4.38281 95.5312 4.41406Z" fill="#CAAFFF"/>
<path d="M101.055 11.125V7.22656C101.055 6.9401 101.005 6.69271 100.906 6.48438C100.807 6.27604 100.656 6.11458 100.453 6C100.25 5.88542 99.9922 5.82812 99.6797 5.82812C99.4036 5.82812 99.1615 5.875 98.9531 5.96875C98.75 6.0625 98.5938 6.19531 98.4844 6.36719C98.375 6.53385 98.3203 6.72656 98.3203 6.94531H96.25C96.25 6.59635 96.3333 6.26562 96.5 5.95312C96.6667 5.63542 96.9036 5.35417 97.2109 5.10938C97.5234 4.85938 97.8958 4.66406 98.3281 4.52344C98.7656 4.38281 99.2552 4.3125 99.7969 4.3125C100.438 4.3125 101.008 4.42188 101.508 4.64062C102.013 4.85417 102.409 5.17708 102.695 5.60938C102.987 6.04167 103.133 6.58594 103.133 7.24219V10.9297C103.133 11.3516 103.159 11.7135 103.211 12.0156C103.268 12.3125 103.352 12.5703 103.461 12.7891V12.9219H101.359C101.26 12.7083 101.185 12.4375 101.133 12.1094C101.081 11.776 101.055 11.4479 101.055 11.125ZM101.344 7.77344L101.359 9H100.055C99.7318 9 99.4479 9.03385 99.2031 9.10156C98.9583 9.16406 98.7578 9.25781 98.6016 9.38281C98.4453 9.5026 98.3281 9.64844 98.25 9.82031C98.1719 9.98698 98.1328 10.1771 98.1328 10.3906C98.1328 10.599 98.1797 10.7865 98.2734 10.9531C98.3724 11.1198 98.513 11.2526 98.6953 11.3516C98.8828 11.4453 99.1016 11.4922 99.3516 11.4922C99.7161 11.4922 100.034 11.4193 100.305 11.2734C100.576 11.1224 100.786 10.9401 100.938 10.7266C101.089 10.513 101.169 10.3099 101.18 10.1172L101.773 11.0078C101.701 11.2214 101.591 11.4479 101.445 11.6875C101.299 11.9271 101.112 12.151 100.883 12.3594C100.654 12.5677 100.378 12.7396 100.055 12.875C99.7318 13.0104 99.3568 13.0781 98.9297 13.0781C98.3828 13.0781 97.8932 12.9688 97.4609 12.75C97.0286 12.5312 96.6875 12.2318 96.4375 11.8516C96.1875 11.4714 96.0625 11.0391 96.0625 10.5547C96.0625 10.1068 96.1458 9.71094 96.3125 9.36719C96.4792 9.02344 96.7266 8.73438 97.0547 8.5C97.3828 8.26042 97.7891 8.08073 98.2734 7.96094C98.763 7.83594 99.3229 7.77344 99.9531 7.77344H101.344Z" fill="#CAAFFF"/>
</svg>
